<?xml version="1.0" encoding="utf-8"?>
<!-- Generator: Adobe Illustrator 23.0.3, SVG Export Plug-In . SVG Version: 6.00 Build 0)  -->
<svg version="1.1" id="Layer_1" xmlns="http://www.w3.org/2000/svg" xmlns:xlink="http://www.w3.org/1999/xlink" x="0px" y="0px"
	 width="24px" height="24px" viewBox="0 0 24 24" style="enable-background:new 0 0 24 24;" xml:space="preserve">
<style type="text/css">
	.st0{fill-rule:evenodd;clip-rule:evenodd;fill:#089163;}
</style>
<title>ic_home</title>
<desc>Created with Sketch.</desc>
<g id="OPt-2">
	<g id="prog2_pro3_Mobile-Portrait_opt2-Copy-2" transform="translate(-10.000000, -15.000000)">
		<g id="nav">
			<g id="Group-6">
				<g id="ic_home" transform="translate(14.000000, 17.000000)">
					<g id="Group" transform="translate(9.600000, 12.000000) scale(-1, 1) translate(-9.600000, -12.000000) ">
						<path id="Shape" class="st0" d="M3.2,4.9l0.9,0.6l1.4,1.1c0.3-1,0.8-1.8,1.5-2.4l-2.8-2l0.9-1.1c0.4-0.5,0.3-1.1-0.3-1.5
							l-2,2.8C2.5,2.7,2.4,3.2,2.4,3.7C2.5,4.1,2.8,4.5,3.2,4.9L3.2,4.9z"/>
						<path class="st0" d="M12,14.6c-3.1-1.7-5.9-2-6.5-1c-0.5,0.9,0.4,2.7,2.3,4.5L5.8,21H4.6c-0.5,0-1,0.5-1,1h1.7h2.2L8,21l1-1.7
							l0.4-0.6c-0.1-0.3-0.3-0.5-0.3-0.8c0-0.9,0.6-1.5,1.5-1.5h0.1L12,14.6L12,14.6z"/>
						<path class="st0" d="M20.6,4.5c-0.1-0.8-0.9-1.4-1.7-1.4c-0.3,0-0.5,0-0.6,0.1c-0.6,0.3-1,0.9-1,1.7v8.2c0,0.6-0.5,1-1,1
							c-0.4,0-0.8-0.3-0.9-0.6v-0.1l-1-2.4l1.7-6.4l0,0c0-0.1,0-0.1,0-0.3C16.7,1.7,15.5-1,13.2-2L8.8-0.5C8.3-0.2,8,0.3,8.1,0.9
							l1.1-0.4c0.4-0.1,0.9,0.1,1.1,0.5c0.1,0.5-0.1,0.9-0.5,1.1L8.8,2.6C9,3.1,9.5,3.4,10.2,3.2l1.3-0.5c0.1,0.5-0.1,1-0.6,1.1
							L8.3,4.8c-1,0.4-1.7,1.4-1.8,2.6v0.1c0,0,0,0,0,0.1l0,0H2.8V6c0-0.4-0.5-0.8-0.8-0.9L1.8,5v3.6c0,1,0.8,1.8,1.8,1.8h4.1
							c0.4,0,0.8,0,1,0.1l0,0l0,0l0,0c1.8,0.5,3.2,2,3.4,4.1v0.1c0,0.1,0,0.3,0,0.4c0,1.1-0.4,2.2-1,2.9l-0.1,0.1c0,0,0,0.3,0,0.5
							c0,0.6,0.5,1.1,1.1,1.1c0.3,0,0.4-0.1,0.6-0.1l2.3-1.4c0.4,0.1,0.5,0.5,0.5,0.9c0,0.3-0.1,0.5-0.3,0.6l-1,1h-1.1l0,0l0,0
							c-0.5,0-1,0.5-1,1h2l0,0h1.3c0-1,0.8-1.8,1.8-1.8V17c-0.8-0.1-1.4-0.9-1.4-1.8v-0.1c0.1,0,0.3,0,0.4,0c0.4,0,0.8-0.1,1.1-0.3
							c0.6-0.4,1-1,1-1.9V4.8c0-0.4,0.3-0.6,0.6-0.6c0.4,0,0.6,0.3,0.6,0.6c-0.5,0.4-0.8,0.9-0.8,1.5c0,1,0.8,1.8,1.8,1.8V4.8
							C20.6,4.6,20.6,4.5,20.6,4.5L20.6,4.5z"/>
					</g>
				</g>
			</g>
		</g>
	</g>
</g>
</svg>
