<?xml version="1.0" encoding="utf-8"?>
<!-- Generator: Adobe Illustrator 23.0.3, SVG Export Plug-In . SVG Version: 6.00 Build 0)  -->
<svg version="1.1" id="Layer_1" xmlns="http://www.w3.org/2000/svg" xmlns:xlink="http://www.w3.org/1999/xlink" x="0px" y="0px"
	 width="24px" height="24px" viewBox="0 0 24 24" style="enable-background:new 0 0 24 24;" xml:space="preserve">
<style type="text/css">
	.st0{fill-rule:evenodd;clip-rule:evenodd;fill:#B3B3B3;}
</style>
<title>ic_onCampus</title>
<desc>Created with Sketch.</desc>
<g id="OPt-2">
	<g id="prog2_pro3_Mobile-Portrait_opt2-Copy-2" transform="translate(-93.000000, -18.000000)">
		<g id="nav">
			<g id="Group-6">
				<g id="ic_onCampus" transform="translate(96.000000, 20.000000)">
					<path id="Shape" class="st0" d="M18.6,2.3v2h-5l-3.5,5h2.5v2H11l3.7,8h-2.2l-0.9-2H2.9l-1,2h-2.2l4.1-8H3.6
						c-0.4,0-0.8-0.3-1-0.7l-3.2-9.5l1-0.3c0.5-0.2,1.1,0.1,1.3,0.6l2.6,7.8h4.4l3.5-5H8.6v-2H18.6L18.6,2.3z M6.1,11.3l-2.1,4h6.7
						l-1.8-4H6.1z"/>
				</g>
			</g>
		</g>
	</g>
</g>
</svg>
